solid OpenSCAD_Model
  facet normal -1 0 0
    outer loop
      vertex 0 0 0
      vertex 0 20 4.35
      vertex 0 20 0
    endloop
  endfacet
  facet normal -1 -0 0
    outer loop
      vertex 0 20 4.35
      vertex 0 0 0
      vertex 0 0 4.35
    endloop
  endfacet
  facet normal 0 0 -1
    outer loop
      vertex 16.6667 20 4.35
      vertex 33.3333 50 4.35
      vertex 33.3333 20 4.35
    endloop
  endfacet
  facet normal -0 0 -1
    outer loop
      vertex 33.3333 50 4.35
      vertex 16.6667 20 4.35
      vertex 16.6667 50 4.35
    endloop
  endfacet
  facet normal 0 0 1
    outer loop
      vertex 16.6667 20 4.35
      vertex 10.0833 10 4.35
      vertex 16.6667 0 4.35
    endloop
  endfacet
  facet normal 0 0 1
    outer loop
      vertex 16.6667 20 4.35
      vertex 9.20833 11.5155 4.35
      vertex 10.0833 10 4.35
    endloop
  endfacet
  facet normal 0 0 1
    outer loop
      vertex 16.6667 20 4.35
      vertex 7.45833 11.5155 4.35
      vertex 9.20833 11.5155 4.35
    endloop
  endfacet
  facet normal 0 0 1
    outer loop
      vertex 7.45833 11.5155 4.35
      vertex 0 20 4.35
      vertex 6.58333 10 4.35
    endloop
  endfacet
  facet normal -0 0 1
    outer loop
      vertex 0 20 4.35
      vertex 7.45833 11.5155 4.35
      vertex 16.6667 20 4.35
    endloop
  endfacet
  facet normal -0 0 1
    outer loop
      vertex 9.20833 8.48446 4.35
      vertex 16.6667 0 4.35
      vertex 10.0833 10 4.35
    endloop
  endfacet
  facet normal -0 0 1
    outer loop
      vertex 7.45833 8.48446 4.35
      vertex 16.6667 0 4.35
      vertex 9.20833 8.48446 4.35
    endloop
  endfacet
  facet normal 0 0 1
    outer loop
      vertex 0 0 4.35
      vertex 6.58333 10 4.35
      vertex 0 20 4.35
    endloop
  endfacet
  facet normal 0 0 1
    outer loop
      vertex 7.45833 8.48446 4.35
      vertex 0 0 4.35
      vertex 16.6667 0 4.35
    endloop
  endfacet
  facet normal 0 0 1
    outer loop
      vertex 6.58333 10 4.35
      vertex 0 0 4.35
      vertex 7.45833 8.48446 4.35
    endloop
  endfacet
  facet normal 0 0 1
    outer loop
      vertex 50 20 4.35
      vertex 43.4167 10 4.35
      vertex 50 0 4.35
    endloop
  endfacet
  facet normal 0 0 1
    outer loop
      vertex 50 20 4.35
      vertex 42.5417 11.5155 4.35
      vertex 43.4167 10 4.35
    endloop
  endfacet
  facet normal 0 0 1
    outer loop
      vertex 50 20 4.35
      vertex 40.7917 11.5155 4.35
      vertex 42.5417 11.5155 4.35
    endloop
  endfacet
  facet normal 0 0 1
    outer loop
      vertex 40.7917 11.5155 4.35
      vertex 33.3333 20 4.35
      vertex 39.9167 10 4.35
    endloop
  endfacet
  facet normal -0 0 1
    outer loop
      vertex 33.3333 20 4.35
      vertex 40.7917 11.5155 4.35
      vertex 50 20 4.35
    endloop
  endfacet
  facet normal -0 0 1
    outer loop
      vertex 42.5417 8.48446 4.35
      vertex 50 0 4.35
      vertex 43.4167 10 4.35
    endloop
  endfacet
  facet normal -0 0 1
    outer loop
      vertex 40.7917 8.48446 4.35
      vertex 50 0 4.35
      vertex 42.5417 8.48446 4.35
    endloop
  endfacet
  facet normal 0 0 1
    outer loop
      vertex 33.3333 0 4.35
      vertex 39.9167 10 4.35
      vertex 33.3333 20 4.35
    endloop
  endfacet
  facet normal 0 0 1
    outer loop
      vertex 40.7917 8.48446 4.35
      vertex 33.3333 0 4.35
      vertex 50 0 4.35
    endloop
  endfacet
  facet normal 0 0 1
    outer loop
      vertex 39.9167 10 4.35
      vertex 33.3333 0 4.35
      vertex 40.7917 8.48446 4.35
    endloop
  endfacet
  facet normal 1 -0 0
    outer loop
      vertex 50 0 4.35
      vertex 50 20 0
      vertex 50 20 4.35
    endloop
  endfacet
  facet normal 1 0 0
    outer loop
      vertex 50 20 0
      vertex 50 0 4.35
      vertex 50 0 0
    endloop
  endfacet
  facet normal 0 1 -0
    outer loop
      vertex 50 20 0
      vertex 33.3333 20 4.35
      vertex 50 20 4.35
    endloop
  endfacet
  facet normal 0 1 0
    outer loop
      vertex 33.3333 20 4.35
      vertex 50 20 0
      vertex 16.6667 20 4.35
    endloop
  endfacet
  facet normal 0 1 0
    outer loop
      vertex 0 20 0
      vertex 16.6667 20 4.35
      vertex 50 20 0
    endloop
  endfacet
  facet normal 0 1 0
    outer loop
      vertex 16.6667 20 4.35
      vertex 0 20 0
      vertex 0 20 4.35
    endloop
  endfacet
  facet normal 0 0 -1
    outer loop
      vertex 50 0 0
      vertex 43.4167 10 0
      vertex 50 20 0
    endloop
  endfacet
  facet normal 0 0 -1
    outer loop
      vertex 50 0 0
      vertex 42.5417 8.48446 0
      vertex 43.4167 10 0
    endloop
  endfacet
  facet normal 0 0 -1
    outer loop
      vertex 50 0 0
      vertex 40.7917 8.48446 0
      vertex 42.5417 8.48446 0
    endloop
  endfacet
  facet normal 0 0 -1
    outer loop
      vertex 40.7917 8.48446 0
      vertex 10.0833 10 0
      vertex 39.9167 10 0
    endloop
  endfacet
  facet normal 0 0 -1
    outer loop
      vertex 9.20833 8.48446 0
      vertex 40.7917 8.48446 0
      vertex 50 0 0
    endloop
  endfacet
  facet normal 0 0 -1
    outer loop
      vertex 40.7917 8.48446 0
      vertex 9.20833 8.48446 0
      vertex 10.0833 10 0
    endloop
  endfacet
  facet normal 0 0 -1
    outer loop
      vertex 0 0 0
      vertex 9.20833 8.48446 0
      vertex 50 0 0
    endloop
  endfacet
  facet normal -0 0 -1
    outer loop
      vertex 7.45833 8.48446 0
      vertex 0 0 0
      vertex 6.58333 10 0
    endloop
  endfacet
  facet normal -0 0 -1
    outer loop
      vertex 9.20833 8.48446 0
      vertex 0 0 0
      vertex 7.45833 8.48446 0
    endloop
  endfacet
  facet normal 0 0 -1
    outer loop
      vertex 42.5417 11.5155 0
      vertex 50 20 0
      vertex 43.4167 10 0
    endloop
  endfacet
  facet normal 0 0 -1
    outer loop
      vertex 40.7917 11.5155 0
      vertex 50 20 0
      vertex 42.5417 11.5155 0
    endloop
  endfacet
  facet normal 0 0 -1
    outer loop
      vertex 10.0833 10 0
      vertex 40.7917 11.5155 0
      vertex 39.9167 10 0
    endloop
  endfacet
  facet normal 0 0 -1
    outer loop
      vertex 9.20833 11.5155 0
      vertex 40.7917 11.5155 0
      vertex 10.0833 10 0
    endloop
  endfacet
  facet normal 0 0 -1
    outer loop
      vertex 40.7917 11.5155 0
      vertex 9.20833 11.5155 0
      vertex 50 20 0
    endloop
  endfacet
  facet normal 0 0 -1
    outer loop
      vertex 0 20 0
      vertex 9.20833 11.5155 0
      vertex 7.45833 11.5155 0
    endloop
  endfacet
  facet normal 0 0 -1
    outer loop
      vertex 0 20 0
      vertex 6.58333 10 0
      vertex 0 0 0
    endloop
  endfacet
  facet normal 0 0 -1
    outer loop
      vertex 9.20833 11.5155 0
      vertex 0 20 0
      vertex 50 20 0
    endloop
  endfacet
  facet normal 0 0 -1
    outer loop
      vertex 6.58333 10 0
      vertex 0 20 0
      vertex 7.45833 11.5155 0
    endloop
  endfacet
  facet normal 0 -1 0
    outer loop
      vertex 22.2566 0 25.4401
      vertex 24 0 36.35
      vertex 16.6667 0 36.35
    endloop
  endfacet
  facet normal 0 -1 -0
    outer loop
      vertex 24 0 36.35
      vertex 22.2566 0 25.4401
      vertex 24 0 26.2796
    endloop
  endfacet
  facet normal 0 -1 0
    outer loop
      vertex 16.6667 0 36.35
      vertex 21.0357 0 23.9091
      vertex 22.2566 0 25.4401
    endloop
  endfacet
  facet normal 0 -1 0
    outer loop
      vertex 16.6667 0 36.35
      vertex 20.6 0 22
      vertex 21.0357 0 23.9091
    endloop
  endfacet
  facet normal 0 -1 0
    outer loop
      vertex 16.6667 0 4.35
      vertex 20.6 0 22
      vertex 16.6667 0 36.35
    endloop
  endfacet
  facet normal 0 -1 -0
    outer loop
      vertex 24.0209 0 17.7103
      vertex 16.6667 0 4.35
      vertex 25.9791 0 17.7103
    endloop
  endfacet
  facet normal 0 -1 -0
    outer loop
      vertex 22.2566 0 18.5599
      vertex 16.6667 0 4.35
      vertex 24.0209 0 17.7103
    endloop
  endfacet
  facet normal 0 -1 -0
    outer loop
      vertex 21.0357 0 20.0909
      vertex 16.6667 0 4.35
      vertex 22.2566 0 18.5599
    endloop
  endfacet
  facet normal 0 -1 -0
    outer loop
      vertex 20.6 0 22
      vertex 16.6667 0 4.35
      vertex 21.0357 0 20.0909
    endloop
  endfacet
  facet normal 0 -1 0
    outer loop
      vertex 27.7434 0 25.4401
      vertex 26 0 36.35
      vertex 26 0 26.2796
    endloop
  endfacet
  facet normal 0 -1 0
    outer loop
      vertex 26 0 36.35
      vertex 27.7434 0 25.4401
      vertex 33.3333 0 36.35
    endloop
  endfacet
  facet normal 0 -1 0
    outer loop
      vertex 28.9643 0 23.9091
      vertex 33.3333 0 36.35
      vertex 27.7434 0 25.4401
    endloop
  endfacet
  facet normal 0 -1 0
    outer loop
      vertex 29.4 0 22
      vertex 33.3333 0 36.35
      vertex 28.9643 0 23.9091
    endloop
  endfacet
  facet normal 0 -1 0
    outer loop
      vertex 33.3333 0 4.35
      vertex 29.4 0 22
      vertex 28.9643 0 20.0909
    endloop
  endfacet
  facet normal 0 -1 0
    outer loop
      vertex 33.3333 0 4.35
      vertex 25.9791 0 17.7103
      vertex 16.6667 0 4.35
    endloop
  endfacet
  facet normal 0 -1 0
    outer loop
      vertex 25.9791 0 17.7103
      vertex 33.3333 0 4.35
      vertex 27.7434 0 18.5599
    endloop
  endfacet
  facet normal 0 -1 0
    outer loop
      vertex 29.4 0 22
      vertex 33.3333 0 4.35
      vertex 33.3333 0 36.35
    endloop
  endfacet
  facet normal 0 -1 0
    outer loop
      vertex 27.7434 0 18.5599
      vertex 33.3333 0 4.35
      vertex 28.9643 0 20.0909
    endloop
  endfacet
  facet normal 0 -1 0
    outer loop
      vertex 0 0 0
      vertex 16.6667 0 4.35
      vertex 0 0 4.35
    endloop
  endfacet
  facet normal 0 -1 -0
    outer loop
      vertex 16.6667 0 4.35
      vertex 0 0 0
      vertex 33.3333 0 4.35
    endloop
  endfacet
  facet normal 0 -1 0
    outer loop
      vertex 50 0 0
      vertex 33.3333 0 4.35
      vertex 0 0 0
    endloop
  endfacet
  facet normal 0 -1 0
    outer loop
      vertex 33.3333 0 4.35
      vertex 50 0 0
      vertex 50 0 4.35
    endloop
  endfacet
  facet normal -1 0 0
    outer loop
      vertex 16.6667 20 4.35
      vertex 16.6667 8.33333 28.25
      vertex 16.6667 9.84888 29.125
    endloop
  endfacet
  facet normal -1 0 0
    outer loop
      vertex 16.6667 0 4.35
      vertex 16.6667 8.33333 28.25
      vertex 16.6667 20 4.35
    endloop
  endfacet
  facet normal -1 0 0
    outer loop
      vertex 16.6667 0 36.35
      vertex 16.6667 6.81779 29.125
      vertex 16.6667 0 4.35
    endloop
  endfacet
  facet normal -1 -0 0
    outer loop
      vertex 16.6667 8.33333 28.25
      vertex 16.6667 0 4.35
      vertex 16.6667 6.81779 29.125
    endloop
  endfacet
  facet normal -1 0 0
    outer loop
      vertex 16.6667 50 4.35
      vertex 16.6667 43.1822 29.125
      vertex 16.6667 50 36.35
    endloop
  endfacet
  facet normal -1 0 0
    outer loop
      vertex 16.6667 50 4.35
      vertex 16.6667 41.6667 28.25
      vertex 16.6667 43.1822 29.125
    endloop
  endfacet
  facet normal -1 0 0
    outer loop
      vertex 16.6667 20 4.35
      vertex 16.6667 41.6667 28.25
      vertex 16.6667 50 4.35
    endloop
  endfacet
  facet normal -1 0 0
    outer loop
      vertex 16.6667 40.1511 29.125
      vertex 16.6667 26.5155 29.125
      vertex 16.6667 40.1511 30.875
    endloop
  endfacet
  facet normal -1 0 -0
    outer loop
      vertex 16.6667 25 28.25
      vertex 16.6667 41.6667 28.25
      vertex 16.6667 20 4.35
    endloop
  endfacet
  facet normal -1 0 0
    outer loop
      vertex 16.6667 41.6667 28.25
      vertex 16.6667 25 28.25
      vertex 16.6667 40.1511 29.125
    endloop
  endfacet
  facet normal -1 -0 0
    outer loop
      vertex 16.6667 40.1511 29.125
      vertex 16.6667 25 28.25
      vertex 16.6667 26.5155 29.125
    endloop
  endfacet
  facet normal -1 0 0
    outer loop
      vertex 16.6667 9.84888 29.125
      vertex 16.6667 23.4845 29.125
      vertex 16.6667 20 4.35
    endloop
  endfacet
  facet normal -1 -0 0
    outer loop
      vertex 16.6667 25 28.25
      vertex 16.6667 20 4.35
      vertex 16.6667 23.4845 29.125
    endloop
  endfacet
  facet normal -1 0 0
    outer loop
      vertex 16.6667 43.1822 30.875
      vertex 16.6667 50 36.35
      vertex 16.6667 43.1822 29.125
    endloop
  endfacet
  facet normal -1 0 0
    outer loop
      vertex 16.6667 41.6667 31.75
      vertex 16.6667 50 36.35
      vertex 16.6667 43.1822 30.875
    endloop
  endfacet
  facet normal -1 0 0
    outer loop
      vertex 16.6667 26.5155 30.875
      vertex 16.6667 40.1511 30.875
      vertex 16.6667 26.5155 29.125
    endloop
  endfacet
  facet normal -1 0 0
    outer loop
      vertex 16.6667 40.1511 30.875
      vertex 16.6667 26.5155 30.875
      vertex 16.6667 41.6667 31.75
    endloop
  endfacet
  facet normal -1 0 0
    outer loop
      vertex 16.6667 25 31.75
      vertex 16.6667 41.6667 31.75
      vertex 16.6667 26.5155 30.875
    endloop
  endfacet
  facet normal -1 0 0
    outer loop
      vertex 16.6667 41.6667 31.75
      vertex 16.6667 25 31.75
      vertex 16.6667 50 36.35
    endloop
  endfacet
  facet normal -1 0 0
    outer loop
      vertex 16.6667 23.4845 29.125
      vertex 16.6667 9.84888 29.125
      vertex 16.6667 23.4845 30.875
    endloop
  endfacet
  facet normal -1 0 0
    outer loop
      vertex 16.6667 9.84888 30.875
      vertex 16.6667 23.4845 30.875
      vertex 16.6667 9.84888 29.125
    endloop
  endfacet
  facet normal -1 0 0
    outer loop
      vertex 16.6667 23.4845 30.875
      vertex 16.6667 9.84888 30.875
      vertex 16.6667 25 31.75
    endloop
  endfacet
  facet normal -1 0 0
    outer loop
      vertex 16.6667 8.33333 31.75
      vertex 16.6667 25 31.75
      vertex 16.6667 9.84888 30.875
    endloop
  endfacet
  facet normal -1 0 0
    outer loop
      vertex 16.6667 0 36.35
      vertex 16.6667 25 31.75
      vertex 16.6667 8.33333 31.75
    endloop
  endfacet
  facet normal -1 0 0
    outer loop
      vertex 16.6667 25 31.75
      vertex 16.6667 0 36.35
      vertex 16.6667 50 36.35
    endloop
  endfacet
  facet normal -1 0 0
    outer loop
      vertex 16.6667 6.81779 30.875
      vertex 16.6667 0 36.35
      vertex 16.6667 8.33333 31.75
    endloop
  endfacet
  facet normal -1 0 0
    outer loop
      vertex 16.6667 6.81779 29.125
      vertex 16.6667 0 36.35
      vertex 16.6667 6.81779 30.875
    endloop
  endfacet
  facet normal -0 0 1
    outer loop
      vertex 16.6667 50 36.35
      vertex 24 0 36.35
      vertex 24 50 36.35
    endloop
  endfacet
  facet normal 0 0 1
    outer loop
      vertex 24 0 36.35
      vertex 16.6667 50 36.35
      vertex 16.6667 0 36.35
    endloop
  endfacet
  facet normal -0 0 1
    outer loop
      vertex 26 50 36.35
      vertex 33.3333 0 36.35
      vertex 33.3333 50 36.35
    endloop
  endfacet
  facet normal 0 0 1
    outer loop
      vertex 33.3333 0 36.35
      vertex 26 50 36.35
      vertex 26 0 36.35
    endloop
  endfacet
  facet normal 1 0 0
    outer loop
      vertex 33.3333 43.1822 29.125
      vertex 33.3333 50 36.35
      vertex 33.3333 43.1822 30.875
    endloop
  endfacet
  facet normal 1 0 0
    outer loop
      vertex 33.3333 50 36.35
      vertex 33.3333 41.6667 31.75
      vertex 33.3333 43.1822 30.875
    endloop
  endfacet
  facet normal 1 0 0
    outer loop
      vertex 33.3333 40.1511 30.875
      vertex 33.3333 26.5155 30.875
      vertex 33.3333 40.1511 29.125
    endloop
  endfacet
  facet normal 1 0 0
    outer loop
      vertex 33.3333 41.6667 31.75
      vertex 33.3333 26.5155 30.875
      vertex 33.3333 40.1511 30.875
    endloop
  endfacet
  facet normal 1 0 0
    outer loop
      vertex 33.3333 25 31.75
      vertex 33.3333 41.6667 31.75
      vertex 33.3333 50 36.35
    endloop
  endfacet
  facet normal 1 0 0
    outer loop
      vertex 33.3333 41.6667 31.75
      vertex 33.3333 25 31.75
      vertex 33.3333 26.5155 30.875
    endloop
  endfacet
  facet normal 1 0 0
    outer loop
      vertex 33.3333 9.84888 29.125
      vertex 33.3333 23.4845 29.125
      vertex 33.3333 23.4845 30.875
    endloop
  endfacet
  facet normal 1 0 0
    outer loop
      vertex 33.3333 9.84888 29.125
      vertex 33.3333 23.4845 30.875
      vertex 33.3333 9.84888 30.875
    endloop
  endfacet
  facet normal 1 0 0
    outer loop
      vertex 33.3333 25 31.75
      vertex 33.3333 9.84888 30.875
      vertex 33.3333 23.4845 30.875
    endloop
  endfacet
  facet normal 1 -0 0
    outer loop
      vertex 33.3333 0 36.35
      vertex 33.3333 25 31.75
      vertex 33.3333 50 36.35
    endloop
  endfacet
  facet normal 1 0 0
    outer loop
      vertex 33.3333 25 31.75
      vertex 33.3333 8.33333 31.75
      vertex 33.3333 9.84888 30.875
    endloop
  endfacet
  facet normal 1 0 0
    outer loop
      vertex 33.3333 6.81779 30.875
      vertex 33.3333 0 36.35
      vertex 33.3333 6.81779 29.125
    endloop
  endfacet
  facet normal 1 0 0
    outer loop
      vertex 33.3333 8.33333 31.75
      vertex 33.3333 0 36.35
      vertex 33.3333 6.81779 30.875
    endloop
  endfacet
  facet normal 1 0 0
    outer loop
      vertex 33.3333 25 31.75
      vertex 33.3333 0 36.35
      vertex 33.3333 8.33333 31.75
    endloop
  endfacet
  facet normal 1 0 0
    outer loop
      vertex 33.3333 50 36.35
      vertex 33.3333 43.1822 29.125
      vertex 33.3333 50 4.35
    endloop
  endfacet
  facet normal 1 -0 0
    outer loop
      vertex 33.3333 41.6667 28.25
      vertex 33.3333 50 4.35
      vertex 33.3333 43.1822 29.125
    endloop
  endfacet
  facet normal 1 0 0
    outer loop
      vertex 33.3333 25 28.25
      vertex 33.3333 41.6667 28.25
      vertex 33.3333 40.1511 29.125
    endloop
  endfacet
  facet normal 1 0 0
    outer loop
      vertex 33.3333 26.5155 29.125
      vertex 33.3333 40.1511 29.125
      vertex 33.3333 26.5155 30.875
    endloop
  endfacet
  facet normal 1 0 0
    outer loop
      vertex 33.3333 25 28.25
      vertex 33.3333 40.1511 29.125
      vertex 33.3333 26.5155 29.125
    endloop
  endfacet
  facet normal 1 0 0
    outer loop
      vertex 33.3333 41.6667 28.25
      vertex 33.3333 25 28.25
      vertex 33.3333 20 4.35
    endloop
  endfacet
  facet normal 1 0 0
    outer loop
      vertex 33.3333 20 4.35
      vertex 33.3333 25 28.25
      vertex 33.3333 23.4845 29.125
    endloop
  endfacet
  facet normal 1 0 0
    outer loop
      vertex 33.3333 41.6667 28.25
      vertex 33.3333 20 4.35
      vertex 33.3333 50 4.35
    endloop
  endfacet
  facet normal 1 0 0
    outer loop
      vertex 33.3333 23.4845 29.125
      vertex 33.3333 9.84888 29.125
      vertex 33.3333 20 4.35
    endloop
  endfacet
  facet normal 1 -0 0
    outer loop
      vertex 33.3333 8.33333 28.25
      vertex 33.3333 20 4.35
      vertex 33.3333 9.84888 29.125
    endloop
  endfacet
  facet normal 1 0 0
    outer loop
      vertex 33.3333 0 4.35
      vertex 33.3333 8.33333 28.25
      vertex 33.3333 6.81779 29.125
    endloop
  endfacet
  facet normal 1 0 0
    outer loop
      vertex 33.3333 0 4.35
      vertex 33.3333 6.81779 29.125
      vertex 33.3333 0 36.35
    endloop
  endfacet
  facet normal 1 0 0
    outer loop
      vertex 33.3333 8.33333 28.25
      vertex 33.3333 0 4.35
      vertex 33.3333 20 4.35
    endloop
  endfacet
  facet normal 0 1 -0
    outer loop
      vertex 27.7434 50 25.4401
      vertex 26 50 36.35
      vertex 33.3333 50 36.35
    endloop
  endfacet
  facet normal 0 1 0
    outer loop
      vertex 26 50 36.35
      vertex 27.7434 50 25.4401
      vertex 26 50 26.2796
    endloop
  endfacet
  facet normal 0 1 0
    outer loop
      vertex 33.3333 50 36.35
      vertex 28.9643 50 23.9091
      vertex 27.7434 50 25.4401
    endloop
  endfacet
  facet normal 0 1 0
    outer loop
      vertex 33.3333 50 36.35
      vertex 29.4 50 22
      vertex 28.9643 50 23.9091
    endloop
  endfacet
  facet normal 0 1 -0
    outer loop
      vertex 33.3333 50 4.35
      vertex 29.4 50 22
      vertex 33.3333 50 36.35
    endloop
  endfacet
  facet normal 0 1 0
    outer loop
      vertex 25.9791 50 17.7103
      vertex 33.3333 50 4.35
      vertex 24.0209 50 17.7103
    endloop
  endfacet
  facet normal 0 1 0
    outer loop
      vertex 27.7434 50 18.5599
      vertex 33.3333 50 4.35
      vertex 25.9791 50 17.7103
    endloop
  endfacet
  facet normal 0 1 0
    outer loop
      vertex 28.9643 50 20.0909
      vertex 33.3333 50 4.35
      vertex 27.7434 50 18.5599
    endloop
  endfacet
  facet normal 0 1 0
    outer loop
      vertex 29.4 50 22
      vertex 33.3333 50 4.35
      vertex 28.9643 50 20.0909
    endloop
  endfacet
  facet normal 0 1 0
    outer loop
      vertex 22.2566 50 25.4401
      vertex 24 50 36.35
      vertex 24 50 26.2796
    endloop
  endfacet
  facet normal 0 1 0
    outer loop
      vertex 24 50 36.35
      vertex 22.2566 50 25.4401
      vertex 16.6667 50 36.35
    endloop
  endfacet
  facet normal 0 1 -0
    outer loop
      vertex 21.0357 50 23.9091
      vertex 16.6667 50 36.35
      vertex 22.2566 50 25.4401
    endloop
  endfacet
  facet normal 0 1 -0
    outer loop
      vertex 20.6 50 22
      vertex 16.6667 50 36.35
      vertex 21.0357 50 23.9091
    endloop
  endfacet
  facet normal 0 1 0
    outer loop
      vertex 16.6667 50 4.35
      vertex 20.6 50 22
      vertex 21.0357 50 20.0909
    endloop
  endfacet
  facet normal 0 1 0
    outer loop
      vertex 16.6667 50 4.35
      vertex 24.0209 50 17.7103
      vertex 33.3333 50 4.35
    endloop
  endfacet
  facet normal 0 1 0
    outer loop
      vertex 24.0209 50 17.7103
      vertex 16.6667 50 4.35
      vertex 22.2566 50 18.5599
    endloop
  endfacet
  facet normal 0 1 0
    outer loop
      vertex 20.6 50 22
      vertex 16.6667 50 4.35
      vertex 16.6667 50 36.35
    endloop
  endfacet
  facet normal 0 1 0
    outer loop
      vertex 22.2566 50 18.5599
      vertex 16.6667 50 4.35
      vertex 21.0357 50 20.0909
    endloop
  endfacet
  facet normal 1 0 0
    outer loop
      vertex 24 50 36.35
      vertex 24 43.1822 30.875
      vertex 24 50 26.2796
    endloop
  endfacet
  facet normal 1 0 0
    outer loop
      vertex 24 50 36.35
      vertex 24 41.6667 31.75
      vertex 24 43.1822 30.875
    endloop
  endfacet
  facet normal 1 0 0
    outer loop
      vertex 24 40.1511 30.875
      vertex 24 26.5155 30.875
      vertex 24 40.1511 29.125
    endloop
  endfacet
  facet normal 1 0 0
    outer loop
      vertex 24 41.6667 31.75
      vertex 24 26.5155 30.875
      vertex 24 40.1511 30.875
    endloop
  endfacet
  facet normal 1 0 0
    outer loop
      vertex 24 25 31.75
      vertex 24 41.6667 31.75
      vertex 24 50 36.35
    endloop
  endfacet
  facet normal 1 0 0
    outer loop
      vertex 24 41.6667 31.75
      vertex 24 25 31.75
      vertex 24 26.5155 30.875
    endloop
  endfacet
  facet normal 1 0 0
    outer loop
      vertex 24 23.4845 30.875
      vertex 24 9.84888 30.875
      vertex 24 23.4845 29.125
    endloop
  endfacet
  facet normal 1 0 0
    outer loop
      vertex 24 25 31.75
      vertex 24 9.84888 30.875
      vertex 24 23.4845 30.875
    endloop
  endfacet
  facet normal 1 -0 0
    outer loop
      vertex 24 0 36.35
      vertex 24 25 31.75
      vertex 24 50 36.35
    endloop
  endfacet
  facet normal 1 0 0
    outer loop
      vertex 24 25 31.75
      vertex 24 8.33333 31.75
      vertex 24 9.84888 30.875
    endloop
  endfacet
  facet normal 1 0 0
    outer loop
      vertex 24 0 26.2796
      vertex 24 6.81779 30.875
      vertex 24 0 36.35
    endloop
  endfacet
  facet normal 1 0 0
    outer loop
      vertex 24 8.33333 31.75
      vertex 24 0 36.35
      vertex 24 6.81779 30.875
    endloop
  endfacet
  facet normal 1 0 0
    outer loop
      vertex 24 25 31.75
      vertex 24 0 36.35
      vertex 24 8.33333 31.75
    endloop
  endfacet
  facet normal 1 -0 0
    outer loop
      vertex 24 43.1822 29.125
      vertex 24 50 26.2796
      vertex 24 43.1822 30.875
    endloop
  endfacet
  facet normal 1 -0 0
    outer loop
      vertex 24 41.6667 28.25
      vertex 24 50 26.2796
      vertex 24 43.1822 29.125
    endloop
  endfacet
  facet normal 1 0 0
    outer loop
      vertex 24 26.5155 29.125
      vertex 24 40.1511 29.125
      vertex 24 26.5155 30.875
    endloop
  endfacet
  facet normal 1 0 0
    outer loop
      vertex 24 40.1511 29.125
      vertex 24 26.5155 29.125
      vertex 24 41.6667 28.25
    endloop
  endfacet
  facet normal 1 0 0
    outer loop
      vertex 24 25 28.25
      vertex 24 41.6667 28.25
      vertex 24 26.5155 29.125
    endloop
  endfacet
  facet normal 1 0 0
    outer loop
      vertex 24 41.6667 28.25
      vertex 24 25 28.25
      vertex 24 50 26.2796
    endloop
  endfacet
  facet normal 1 0 0
    outer loop
      vertex 24 9.84888 29.125
      vertex 24 23.4845 29.125
      vertex 24 9.84888 30.875
    endloop
  endfacet
  facet normal 1 0 0
    outer loop
      vertex 24 23.4845 29.125
      vertex 24 9.84888 29.125
      vertex 24 25 28.25
    endloop
  endfacet
  facet normal 1 0 0
    outer loop
      vertex 24 8.33333 28.25
      vertex 24 25 28.25
      vertex 24 9.84888 29.125
    endloop
  endfacet
  facet normal 1 0 0
    outer loop
      vertex 24 0 26.2796
      vertex 24 25 28.25
      vertex 24 8.33333 28.25
    endloop
  endfacet
  facet normal 1 0 0
    outer loop
      vertex 24 25 28.25
      vertex 24 0 26.2796
      vertex 24 50 26.2796
    endloop
  endfacet
  facet normal 1 0 0
    outer loop
      vertex 24 6.81779 29.125
      vertex 24 0 26.2796
      vertex 24 8.33333 28.25
    endloop
  endfacet
  facet normal 1 0 0
    outer loop
      vertex 24 6.81779 30.875
      vertex 24 0 26.2796
      vertex 24 6.81779 29.125
    endloop
  endfacet
  facet normal -1 0 0
    outer loop
      vertex 26 43.1822 30.875
      vertex 26 50 26.2796
      vertex 26 43.1822 29.125
    endloop
  endfacet
  facet normal -1 0 0
    outer loop
      vertex 26 50 26.2796
      vertex 26 41.6667 28.25
      vertex 26 43.1822 29.125
    endloop
  endfacet
  facet normal -1 0 0
    outer loop
      vertex 26 40.1511 29.125
      vertex 26 26.5155 29.125
      vertex 26 40.1511 30.875
    endloop
  endfacet
  facet normal -1 0 0
    outer loop
      vertex 26 41.6667 28.25
      vertex 26 26.5155 29.125
      vertex 26 40.1511 29.125
    endloop
  endfacet
  facet normal -1 0 0
    outer loop
      vertex 26 25 28.25
      vertex 26 41.6667 28.25
      vertex 26 50 26.2796
    endloop
  endfacet
  facet normal -1 0 0
    outer loop
      vertex 26 41.6667 28.25
      vertex 26 25 28.25
      vertex 26 26.5155 29.125
    endloop
  endfacet
  facet normal -1 0 0
    outer loop
      vertex 26 23.4845 29.125
      vertex 26 9.84888 29.125
      vertex 26 23.4845 30.875
    endloop
  endfacet
  facet normal -1 0 0
    outer loop
      vertex 26 25 28.25
      vertex 26 9.84888 29.125
      vertex 26 23.4845 29.125
    endloop
  endfacet
  facet normal -1 0 0
    outer loop
      vertex 26 0 26.2796
      vertex 26 25 28.25
      vertex 26 50 26.2796
    endloop
  endfacet
  facet normal -1 0 0
    outer loop
      vertex 26 25 28.25
      vertex 26 8.33333 28.25
      vertex 26 9.84888 29.125
    endloop
  endfacet
  facet normal -1 -0 0
    outer loop
      vertex 26 6.81779 29.125
      vertex 26 0 26.2796
      vertex 26 6.81779 30.875
    endloop
  endfacet
  facet normal -1 -0 0
    outer loop
      vertex 26 8.33333 28.25
      vertex 26 0 26.2796
      vertex 26 6.81779 29.125
    endloop
  endfacet
  facet normal -1 -0 0
    outer loop
      vertex 26 25 28.25
      vertex 26 0 26.2796
      vertex 26 8.33333 28.25
    endloop
  endfacet
  facet normal -1 0 0
    outer loop
      vertex 26 50 26.2796
      vertex 26 43.1822 30.875
      vertex 26 50 36.35
    endloop
  endfacet
  facet normal -1 0 0
    outer loop
      vertex 26 41.6667 31.75
      vertex 26 50 36.35
      vertex 26 43.1822 30.875
    endloop
  endfacet
  facet normal -1 0 0
    outer loop
      vertex 26 26.5155 30.875
      vertex 26 40.1511 30.875
      vertex 26 26.5155 29.125
    endloop
  endfacet
  facet normal -1 0 0
    outer loop
      vertex 26 40.1511 30.875
      vertex 26 26.5155 30.875
      vertex 26 41.6667 31.75
    endloop
  endfacet
  facet normal -1 0 0
    outer loop
      vertex 26 25 31.75
      vertex 26 41.6667 31.75
      vertex 26 26.5155 30.875
    endloop
  endfacet
  facet normal -1 0 0
    outer loop
      vertex 26 41.6667 31.75
      vertex 26 25 31.75
      vertex 26 50 36.35
    endloop
  endfacet
  facet normal -1 0 0
    outer loop
      vertex 26 9.84888 30.875
      vertex 26 23.4845 30.875
      vertex 26 9.84888 29.125
    endloop
  endfacet
  facet normal -1 0 0
    outer loop
      vertex 26 23.4845 30.875
      vertex 26 9.84888 30.875
      vertex 26 25 31.75
    endloop
  endfacet
  facet normal -1 0 0
    outer loop
      vertex 26 8.33333 31.75
      vertex 26 25 31.75
      vertex 26 9.84888 30.875
    endloop
  endfacet
  facet normal -1 0 0
    outer loop
      vertex 26 0 36.35
      vertex 26 25 31.75
      vertex 26 8.33333 31.75
    endloop
  endfacet
  facet normal -1 0 0
    outer loop
      vertex 26 25 31.75
      vertex 26 0 36.35
      vertex 26 50 36.35
    endloop
  endfacet
  facet normal -1 0 0
    outer loop
      vertex 26 6.81779 30.875
      vertex 26 0 36.35
      vertex 26 8.33333 31.75
    endloop
  endfacet
  facet normal -1 0 0
    outer loop
      vertex 26 0 36.35
      vertex 26 6.81779 30.875
      vertex 26 0 26.2796
    endloop
  endfacet
  facet normal -0.974928 0 -0.22252
    outer loop
      vertex 29.4 0 22
      vertex 28.9643 50 23.9091
      vertex 29.4 50 22
    endloop
  endfacet
  facet normal -0.974928 -0 -0.22252
    outer loop
      vertex 28.9643 50 23.9091
      vertex 29.4 0 22
      vertex 28.9643 0 23.9091
    endloop
  endfacet
  facet normal -0.781831 0 -0.62349
    outer loop
      vertex 28.9643 0 23.9091
      vertex 27.7434 50 25.4401
      vertex 28.9643 50 23.9091
    endloop
  endfacet
  facet normal -0.781831 -0 -0.62349
    outer loop
      vertex 27.7434 50 25.4401
      vertex 28.9643 0 23.9091
      vertex 27.7434 0 25.4401
    endloop
  endfacet
  facet normal -0.433884 0 -0.900969
    outer loop
      vertex 26 0 26.2796
      vertex 27.7434 50 25.4401
      vertex 27.7434 0 25.4401
    endloop
  endfacet
  facet normal -0.433884 0 -0.900969
    outer loop
      vertex 27.7434 50 25.4401
      vertex 26 0 26.2796
      vertex 26 50 26.2796
    endloop
  endfacet
  facet normal 0.781831 0 -0.62349
    outer loop
      vertex 22.2566 0 25.4401
      vertex 21.0357 50 23.9091
      vertex 22.2566 50 25.4401
    endloop
  endfacet
  facet normal 0.781831 0 -0.62349
    outer loop
      vertex 21.0357 50 23.9091
      vertex 22.2566 0 25.4401
      vertex 21.0357 0 23.9091
    endloop
  endfacet
  facet normal 0.433884 0 -0.900969
    outer loop
      vertex 22.2566 0 25.4401
      vertex 24 50 26.2796
      vertex 24 0 26.2796
    endloop
  endfacet
  facet normal 0.433884 0 -0.900969
    outer loop
      vertex 24 50 26.2796
      vertex 22.2566 0 25.4401
      vertex 22.2566 50 25.4401
    endloop
  endfacet
  facet normal -0.433884 0 0.900969
    outer loop
      vertex 25.9791 50 17.7103
      vertex 27.7434 0 18.5599
      vertex 27.7434 50 18.5599
    endloop
  endfacet
  facet normal -0.433884 0 0.900969
    outer loop
      vertex 27.7434 0 18.5599
      vertex 25.9791 50 17.7103
      vertex 25.9791 0 17.7103
    endloop
  endfacet
  facet normal -0.974928 0 0.22252
    outer loop
      vertex 28.9643 0 20.0909
      vertex 29.4 50 22
      vertex 28.9643 50 20.0909
    endloop
  endfacet
  facet normal -0.974928 0 0.22252
    outer loop
      vertex 29.4 50 22
      vertex 28.9643 0 20.0909
      vertex 29.4 0 22
    endloop
  endfacet
  facet normal -0 0 1
    outer loop
      vertex 24.0209 50 17.7103
      vertex 25.9791 0 17.7103
      vertex 25.9791 50 17.7103
    endloop
  endfacet
  facet normal 0 0 1
    outer loop
      vertex 25.9791 0 17.7103
      vertex 24.0209 50 17.7103
      vertex 24.0209 0 17.7103
    endloop
  endfacet
  facet normal 0.781831 -0 0.62349
    outer loop
      vertex 21.0357 0 20.0909
      vertex 22.2566 50 18.5599
      vertex 21.0357 50 20.0909
    endloop
  endfacet
  facet normal 0.781831 0 0.62349
    outer loop
      vertex 22.2566 50 18.5599
      vertex 21.0357 0 20.0909
      vertex 22.2566 0 18.5599
    endloop
  endfacet
  facet normal 0.974928 0 -0.222521
    outer loop
      vertex 21.0357 0 23.9091
      vertex 20.6 50 22
      vertex 21.0357 50 23.9091
    endloop
  endfacet
  facet normal 0.974928 0 -0.222521
    outer loop
      vertex 20.6 50 22
      vertex 21.0357 0 23.9091
      vertex 20.6 0 22
    endloop
  endfacet
  facet normal 0.974928 -0 0.222521
    outer loop
      vertex 20.6 0 22
      vertex 21.0357 50 20.0909
      vertex 20.6 50 22
    endloop
  endfacet
  facet normal 0.974928 0 0.222521
    outer loop
      vertex 21.0357 50 20.0909
      vertex 20.6 0 22
      vertex 21.0357 0 20.0909
    endloop
  endfacet
  facet normal -0.781831 0 0.62349
    outer loop
      vertex 27.7434 0 18.5599
      vertex 28.9643 50 20.0909
      vertex 27.7434 50 18.5599
    endloop
  endfacet
  facet normal -0.781831 0 0.62349
    outer loop
      vertex 28.9643 50 20.0909
      vertex 27.7434 0 18.5599
      vertex 28.9643 0 20.0909
    endloop
  endfacet
  facet normal 0.433884 0 0.900969
    outer loop
      vertex 22.2566 50 18.5599
      vertex 24.0209 0 17.7103
      vertex 24.0209 50 17.7103
    endloop
  endfacet
  facet normal 0.433884 0 0.900969
    outer loop
      vertex 24.0209 0 17.7103
      vertex 22.2566 50 18.5599
      vertex 22.2566 0 18.5599
    endloop
  endfacet
  facet normal -0.866025 -0.5 0
    outer loop
      vertex 10.0833 10 0
      vertex 9.20833 11.5155 4.35
      vertex 9.20833 11.5155 0
    endloop
  endfacet
  facet normal -0.866025 -0.5 0
    outer loop
      vertex 9.20833 11.5155 4.35
      vertex 10.0833 10 0
      vertex 10.0833 10 4.35
    endloop
  endfacet
  facet normal 0 1 -0
    outer loop
      vertex 9.20833 8.48446 0
      vertex 7.45833 8.48446 4.35
      vertex 9.20833 8.48446 4.35
    endloop
  endfacet
  facet normal 0 1 0
    outer loop
      vertex 7.45833 8.48446 4.35
      vertex 9.20833 8.48446 0
      vertex 7.45833 8.48446 0
    endloop
  endfacet
  facet normal 0.866025 -0.5 0
    outer loop
      vertex 6.58333 10 4.35
      vertex 7.45833 11.5155 0
      vertex 7.45833 11.5155 4.35
    endloop
  endfacet
  facet normal 0.866025 -0.5 0
    outer loop
      vertex 7.45833 11.5155 0
      vertex 6.58333 10 4.35
      vertex 6.58333 10 0
    endloop
  endfacet
  facet normal 0 -1 0
    outer loop
      vertex 7.45833 11.5155 0
      vertex 9.20833 11.5155 4.35
      vertex 7.45833 11.5155 4.35
    endloop
  endfacet
  facet normal 0 -1 -0
    outer loop
      vertex 9.20833 11.5155 4.35
      vertex 7.45833 11.5155 0
      vertex 9.20833 11.5155 0
    endloop
  endfacet
  facet normal 0.866025 0.5 0
    outer loop
      vertex 7.45833 8.48446 4.35
      vertex 6.58333 10 0
      vertex 6.58333 10 4.35
    endloop
  endfacet
  facet normal 0.866025 0.5 0
    outer loop
      vertex 6.58333 10 0
      vertex 7.45833 8.48446 4.35
      vertex 7.45833 8.48446 0
    endloop
  endfacet
  facet normal -0.866025 0.5 0
    outer loop
      vertex 9.20833 8.48446 0
      vertex 10.0833 10 4.35
      vertex 10.0833 10 0
    endloop
  endfacet
  facet normal -0.866025 0.5 0
    outer loop
      vertex 10.0833 10 4.35
      vertex 9.20833 8.48446 0
      vertex 9.20833 8.48446 4.35
    endloop
  endfacet
  facet normal -0.866025 -0.5 0
    outer loop
      vertex 43.4167 10 0
      vertex 42.5417 11.5155 4.35
      vertex 42.5417 11.5155 0
    endloop
  endfacet
  facet normal -0.866025 -0.5 0
    outer loop
      vertex 42.5417 11.5155 4.35
      vertex 43.4167 10 0
      vertex 43.4167 10 4.35
    endloop
  endfacet
  facet normal 0 1 -0
    outer loop
      vertex 42.5417 8.48446 0
      vertex 40.7917 8.48446 4.35
      vertex 42.5417 8.48446 4.35
    endloop
  endfacet
  facet normal 0 1 0
    outer loop
      vertex 40.7917 8.48446 4.35
      vertex 42.5417 8.48446 0
      vertex 40.7917 8.48446 0
    endloop
  endfacet
  facet normal 0.866025 -0.5 0
    outer loop
      vertex 39.9167 10 4.35
      vertex 40.7917 11.5155 0
      vertex 40.7917 11.5155 4.35
    endloop
  endfacet
  facet normal 0.866025 -0.5 0
    outer loop
      vertex 40.7917 11.5155 0
      vertex 39.9167 10 4.35
      vertex 39.9167 10 0
    endloop
  endfacet
  facet normal 0 -1 0
    outer loop
      vertex 40.7917 11.5155 0
      vertex 42.5417 11.5155 4.35
      vertex 40.7917 11.5155 4.35
    endloop
  endfacet
  facet normal 0 -1 -0
    outer loop
      vertex 42.5417 11.5155 4.35
      vertex 40.7917 11.5155 0
      vertex 42.5417 11.5155 0
    endloop
  endfacet
  facet normal 0.866025 0.5 0
    outer loop
      vertex 40.7917 8.48446 4.35
      vertex 39.9167 10 0
      vertex 39.9167 10 4.35
    endloop
  endfacet
  facet normal 0.866025 0.5 0
    outer loop
      vertex 39.9167 10 0
      vertex 40.7917 8.48446 4.35
      vertex 40.7917 8.48446 0
    endloop
  endfacet
  facet normal -0.866025 0.5 0
    outer loop
      vertex 42.5417 8.48446 0
      vertex 43.4167 10 4.35
      vertex 43.4167 10 0
    endloop
  endfacet
  facet normal -0.866025 0.5 0
    outer loop
      vertex 43.4167 10 4.35
      vertex 42.5417 8.48446 0
      vertex 42.5417 8.48446 4.35
    endloop
  endfacet
  facet normal 0 -0.5 0.866025
    outer loop
      vertex 16.6667 9.84888 29.125
      vertex 24 8.33333 28.25
      vertex 24 9.84888 29.125
    endloop
  endfacet
  facet normal 0 -0.5 0.866025
    outer loop
      vertex 24 8.33333 28.25
      vertex 16.6667 9.84888 29.125
      vertex 16.6667 8.33333 28.25
    endloop
  endfacet
  facet normal 0 -0.5 0.866025
    outer loop
      vertex 26 9.84888 29.125
      vertex 33.3333 8.33333 28.25
      vertex 33.3333 9.84888 29.125
    endloop
  endfacet
  facet normal 0 -0.5 0.866025
    outer loop
      vertex 33.3333 8.33333 28.25
      vertex 26 9.84888 29.125
      vertex 26 8.33333 28.25
    endloop
  endfacet
  facet normal 0 0.5 -0.866025
    outer loop
      vertex 16.6667 6.81779 30.875
      vertex 24 8.33333 31.75
      vertex 24 6.81779 30.875
    endloop
  endfacet
  facet normal 0 0.5 -0.866025
    outer loop
      vertex 24 8.33333 31.75
      vertex 16.6667 6.81779 30.875
      vertex 16.6667 8.33333 31.75
    endloop
  endfacet
  facet normal 0 0.5 -0.866025
    outer loop
      vertex 26 6.81779 30.875
      vertex 33.3333 8.33333 31.75
      vertex 33.3333 6.81779 30.875
    endloop
  endfacet
  facet normal 0 0.5 -0.866025
    outer loop
      vertex 33.3333 8.33333 31.75
      vertex 26 6.81779 30.875
      vertex 26 8.33333 31.75
    endloop
  endfacet
  facet normal 0 1 -0
    outer loop
      vertex 24 6.81779 29.125
      vertex 16.6667 6.81779 30.875
      vertex 24 6.81779 30.875
    endloop
  endfacet
  facet normal 0 1 0
    outer loop
      vertex 16.6667 6.81779 30.875
      vertex 24 6.81779 29.125
      vertex 16.6667 6.81779 29.125
    endloop
  endfacet
  facet normal 0 1 -0
    outer loop
      vertex 33.3333 6.81779 29.125
      vertex 26 6.81779 30.875
      vertex 33.3333 6.81779 30.875
    endloop
  endfacet
  facet normal 0 1 0
    outer loop
      vertex 26 6.81779 30.875
      vertex 33.3333 6.81779 29.125
      vertex 26 6.81779 29.125
    endloop
  endfacet
  facet normal 0 -0.5 -0.866025
    outer loop
      vertex 16.6667 8.33333 31.75
      vertex 24 9.84888 30.875
      vertex 24 8.33333 31.75
    endloop
  endfacet
  facet normal -0 -0.5 -0.866025
    outer loop
      vertex 24 9.84888 30.875
      vertex 16.6667 8.33333 31.75
      vertex 16.6667 9.84888 30.875
    endloop
  endfacet
  facet normal 0 -0.5 -0.866025
    outer loop
      vertex 26 8.33333 31.75
      vertex 33.3333 9.84888 30.875
      vertex 33.3333 8.33333 31.75
    endloop
  endfacet
  facet normal -0 -0.5 -0.866025
    outer loop
      vertex 33.3333 9.84888 30.875
      vertex 26 8.33333 31.75
      vertex 26 9.84888 30.875
    endloop
  endfacet
  facet normal 0 -1 0
    outer loop
      vertex 16.6667 9.84888 29.125
      vertex 24 9.84888 30.875
      vertex 16.6667 9.84888 30.875
    endloop
  endfacet
  facet normal 0 -1 -0
    outer loop
      vertex 24 9.84888 30.875
      vertex 16.6667 9.84888 29.125
      vertex 24 9.84888 29.125
    endloop
  endfacet
  facet normal 0 -1 0
    outer loop
      vertex 26 9.84888 29.125
      vertex 33.3333 9.84888 30.875
      vertex 26 9.84888 30.875
    endloop
  endfacet
  facet normal 0 -1 -0
    outer loop
      vertex 33.3333 9.84888 30.875
      vertex 26 9.84888 29.125
      vertex 33.3333 9.84888 29.125
    endloop
  endfacet
  facet normal -0 0.5 0.866025
    outer loop
      vertex 16.6667 8.33333 28.25
      vertex 24 6.81779 29.125
      vertex 24 8.33333 28.25
    endloop
  endfacet
  facet normal 0 0.5 0.866025
    outer loop
      vertex 24 6.81779 29.125
      vertex 16.6667 8.33333 28.25
      vertex 16.6667 6.81779 29.125
    endloop
  endfacet
  facet normal -0 0.5 0.866025
    outer loop
      vertex 26 8.33333 28.25
      vertex 33.3333 6.81779 29.125
      vertex 33.3333 8.33333 28.25
    endloop
  endfacet
  facet normal 0 0.5 0.866025
    outer loop
      vertex 33.3333 6.81779 29.125
      vertex 26 8.33333 28.25
      vertex 26 6.81779 29.125
    endloop
  endfacet
  facet normal 0 -0.5 0.866025
    outer loop
      vertex 16.6667 26.5155 29.125
      vertex 24 25 28.25
      vertex 24 26.5155 29.125
    endloop
  endfacet
  facet normal 0 -0.5 0.866025
    outer loop
      vertex 24 25 28.25
      vertex 16.6667 26.5155 29.125
      vertex 16.6667 25 28.25
    endloop
  endfacet
  facet normal 0 -0.5 0.866025
    outer loop
      vertex 26 26.5155 29.125
      vertex 33.3333 25 28.25
      vertex 33.3333 26.5155 29.125
    endloop
  endfacet
  facet normal 0 -0.5 0.866025
    outer loop
      vertex 33.3333 25 28.25
      vertex 26 26.5155 29.125
      vertex 26 25 28.25
    endloop
  endfacet
  facet normal 0 0.5 -0.866025
    outer loop
      vertex 16.6667 23.4845 30.875
      vertex 24 25 31.75
      vertex 24 23.4845 30.875
    endloop
  endfacet
  facet normal 0 0.5 -0.866025
    outer loop
      vertex 24 25 31.75
      vertex 16.6667 23.4845 30.875
      vertex 16.6667 25 31.75
    endloop
  endfacet
  facet normal 0 0.5 -0.866025
    outer loop
      vertex 26 23.4845 30.875
      vertex 33.3333 25 31.75
      vertex 33.3333 23.4845 30.875
    endloop
  endfacet
  facet normal 0 0.5 -0.866025
    outer loop
      vertex 33.3333 25 31.75
      vertex 26 23.4845 30.875
      vertex 26 25 31.75
    endloop
  endfacet
  facet normal 0 1 -0
    outer loop
      vertex 24 23.4845 29.125
      vertex 16.6667 23.4845 30.875
      vertex 24 23.4845 30.875
    endloop
  endfacet
  facet normal 0 1 0
    outer loop
      vertex 16.6667 23.4845 30.875
      vertex 24 23.4845 29.125
      vertex 16.6667 23.4845 29.125
    endloop
  endfacet
  facet normal 0 1 -0
    outer loop
      vertex 33.3333 23.4845 29.125
      vertex 26 23.4845 30.875
      vertex 33.3333 23.4845 30.875
    endloop
  endfacet
  facet normal 0 1 0
    outer loop
      vertex 26 23.4845 30.875
      vertex 33.3333 23.4845 29.125
      vertex 26 23.4845 29.125
    endloop
  endfacet
  facet normal 0 -0.5 -0.866025
    outer loop
      vertex 16.6667 25 31.75
      vertex 24 26.5155 30.875
      vertex 24 25 31.75
    endloop
  endfacet
  facet normal -0 -0.5 -0.866025
    outer loop
      vertex 24 26.5155 30.875
      vertex 16.6667 25 31.75
      vertex 16.6667 26.5155 30.875
    endloop
  endfacet
  facet normal 0 -0.5 -0.866025
    outer loop
      vertex 26 25 31.75
      vertex 33.3333 26.5155 30.875
      vertex 33.3333 25 31.75
    endloop
  endfacet
  facet normal -0 -0.5 -0.866025
    outer loop
      vertex 33.3333 26.5155 30.875
      vertex 26 25 31.75
      vertex 26 26.5155 30.875
    endloop
  endfacet
  facet normal 0 -1 0
    outer loop
      vertex 16.6667 26.5155 29.125
      vertex 24 26.5155 30.875
      vertex 16.6667 26.5155 30.875
    endloop
  endfacet
  facet normal 0 -1 -0
    outer loop
      vertex 24 26.5155 30.875
      vertex 16.6667 26.5155 29.125
      vertex 24 26.5155 29.125
    endloop
  endfacet
  facet normal 0 -1 0
    outer loop
      vertex 26 26.5155 29.125
      vertex 33.3333 26.5155 30.875
      vertex 26 26.5155 30.875
    endloop
  endfacet
  facet normal 0 -1 -0
    outer loop
      vertex 33.3333 26.5155 30.875
      vertex 26 26.5155 29.125
      vertex 33.3333 26.5155 29.125
    endloop
  endfacet
  facet normal -0 0.5 0.866025
    outer loop
      vertex 16.6667 25 28.25
      vertex 24 23.4845 29.125
      vertex 24 25 28.25
    endloop
  endfacet
  facet normal 0 0.5 0.866025
    outer loop
      vertex 24 23.4845 29.125
      vertex 16.6667 25 28.25
      vertex 16.6667 23.4845 29.125
    endloop
  endfacet
  facet normal -0 0.5 0.866025
    outer loop
      vertex 26 25 28.25
      vertex 33.3333 23.4845 29.125
      vertex 33.3333 25 28.25
    endloop
  endfacet
  facet normal 0 0.5 0.866025
    outer loop
      vertex 33.3333 23.4845 29.125
      vertex 26 25 28.25
      vertex 26 23.4845 29.125
    endloop
  endfacet
  facet normal 0 -0.499999 0.866026
    outer loop
      vertex 16.6667 43.1822 29.125
      vertex 24 41.6667 28.25
      vertex 24 43.1822 29.125
    endloop
  endfacet
  facet normal 0 -0.499999 0.866026
    outer loop
      vertex 24 41.6667 28.25
      vertex 16.6667 43.1822 29.125
      vertex 16.6667 41.6667 28.25
    endloop
  endfacet
  facet normal 0 -0.499999 0.866026
    outer loop
      vertex 26 43.1822 29.125
      vertex 33.3333 41.6667 28.25
      vertex 33.3333 43.1822 29.125
    endloop
  endfacet
  facet normal 0 -0.499999 0.866026
    outer loop
      vertex 33.3333 41.6667 28.25
      vertex 26 43.1822 29.125
      vertex 26 41.6667 28.25
    endloop
  endfacet
  facet normal 0 -0.499999 -0.866026
    outer loop
      vertex 16.6667 41.6667 31.75
      vertex 24 43.1822 30.875
      vertex 24 41.6667 31.75
    endloop
  endfacet
  facet normal -0 -0.499999 -0.866026
    outer loop
      vertex 24 43.1822 30.875
      vertex 16.6667 41.6667 31.75
      vertex 16.6667 43.1822 30.875
    endloop
  endfacet
  facet normal 0 -0.499999 -0.866026
    outer loop
      vertex 26 41.6667 31.75
      vertex 33.3333 43.1822 30.875
      vertex 33.3333 41.6667 31.75
    endloop
  endfacet
  facet normal -0 -0.499999 -0.866026
    outer loop
      vertex 33.3333 43.1822 30.875
      vertex 26 41.6667 31.75
      vertex 26 43.1822 30.875
    endloop
  endfacet
  facet normal 0 -1 0
    outer loop
      vertex 16.6667 43.1822 29.125
      vertex 24 43.1822 30.875
      vertex 16.6667 43.1822 30.875
    endloop
  endfacet
  facet normal 0 -1 -0
    outer loop
      vertex 24 43.1822 30.875
      vertex 16.6667 43.1822 29.125
      vertex 24 43.1822 29.125
    endloop
  endfacet
  facet normal 0 -1 0
    outer loop
      vertex 26 43.1822 29.125
      vertex 33.3333 43.1822 30.875
      vertex 26 43.1822 30.875
    endloop
  endfacet
  facet normal 0 -1 -0
    outer loop
      vertex 33.3333 43.1822 30.875
      vertex 26 43.1822 29.125
      vertex 33.3333 43.1822 29.125
    endloop
  endfacet
  facet normal -0 0.500001 0.866025
    outer loop
      vertex 16.6667 41.6667 28.25
      vertex 24 40.1511 29.125
      vertex 24 41.6667 28.25
    endloop
  endfacet
  facet normal 0 0.500001 0.866025
    outer loop
      vertex 24 40.1511 29.125
      vertex 16.6667 41.6667 28.25
      vertex 16.6667 40.1511 29.125
    endloop
  endfacet
  facet normal -0 0.500001 0.866025
    outer loop
      vertex 26 41.6667 28.25
      vertex 33.3333 40.1511 29.125
      vertex 33.3333 41.6667 28.25
    endloop
  endfacet
  facet normal 0 0.500001 0.866025
    outer loop
      vertex 33.3333 40.1511 29.125
      vertex 26 41.6667 28.25
      vertex 26 40.1511 29.125
    endloop
  endfacet
  facet normal 0 1 -0
    outer loop
      vertex 24 40.1511 29.125
      vertex 16.6667 40.1511 30.875
      vertex 24 40.1511 30.875
    endloop
  endfacet
  facet normal 0 1 0
    outer loop
      vertex 16.6667 40.1511 30.875
      vertex 24 40.1511 29.125
      vertex 16.6667 40.1511 29.125
    endloop
  endfacet
  facet normal 0 1 -0
    outer loop
      vertex 33.3333 40.1511 29.125
      vertex 26 40.1511 30.875
      vertex 33.3333 40.1511 30.875
    endloop
  endfacet
  facet normal 0 1 0
    outer loop
      vertex 26 40.1511 30.875
      vertex 33.3333 40.1511 29.125
      vertex 26 40.1511 29.125
    endloop
  endfacet
  facet normal 0 0.500001 -0.866025
    outer loop
      vertex 16.6667 40.1511 30.875
      vertex 24 41.6667 31.75
      vertex 24 40.1511 30.875
    endloop
  endfacet
  facet normal 0 0.500001 -0.866025
    outer loop
      vertex 24 41.6667 31.75
      vertex 16.6667 40.1511 30.875
      vertex 16.6667 41.6667 31.75
    endloop
  endfacet
  facet normal 0 0.500001 -0.866025
    outer loop
      vertex 26 40.1511 30.875
      vertex 33.3333 41.6667 31.75
      vertex 33.3333 40.1511 30.875
    endloop
  endfacet
  facet normal 0 0.500001 -0.866025
    outer loop
      vertex 33.3333 41.6667 31.75
      vertex 26 40.1511 30.875
      vertex 26 41.6667 31.75
    endloop
  endfacet
endsolid OpenSCAD_Model
